<svg xmlns="http://www.w3.org/2000/svg" viewBox="-2.1 0 702.9 556.1">
  <path fill="#000000" fill-rule="evenodd" d="M378.5,202.8c-14.4,14.4-14.4,37.7,0,52,14.3,14.4,37.6,14.3,52,0h0c14.4-14.3,14.4-37.6,0-52-14.4-14.4-37.7-14.4-52,0Z"/>
  <path fill="#000000" fill-rule="evenodd" d="M584,0H114.6C50.2,0-2.1,52.3-2.1,116.8v322.5c0,64.5,52.3,116.8,116.8,116.8h469.3c64.4,0,116.8-52.3,116.8-116.8V116.8c0-64.4-52.3-116.8-116.8-116.8ZM288,396.6c-1.2,10.3-5.8,19.7-13.1,27-18,18.1-85,19.8-85,19.8,0,0,1.7-66.9,19.8-85s16.7-11.9,26.9-13.1c1.1-.1,2.1.2,2.8,1,1.3,1.3,1.2,3.5,0,4.8-2.3,2.3-6,12.1-7.3,19.1-3.3,18.4,12.8,34.1,31,31,8.1-1.5,14.9-3.1,19.1-7.3h0c2.2-2.3,6.1-.4,5.8,2.8ZM434.8,321.7c-10,10-20.8,19.2-32.3,27.3,1.5,17.2.2,34.5-6.3,49.3-18.2,41.7-66.2,53.8-86.7,57.1-.6.2-1.3.2-2,0-4.1-.4-7-4.1-6.6-8.1l7.4-66.8c-5.1,0-10-.4-15-.9-3.4-.3-6.7-1.9-9.2-4.4l-25.9-25.8c-2.5-2.5-4.1-5.7-4.4-9.2-.5-5-.8-10-.9-15.1l-66.9,7.4c-.7,0-1.4,0-2.1,0-4.1-.7-6.7-4.5-6-8.5,3.4-20.5,15.5-68.4,57.2-86.7,14.8-6.4,32.1-7.7,49.4-6.2,8.1-11.5,17.2-22.3,27.3-32.3,56.2-56.2,159.8-95.2,204.7-84.3,1.3.4,2.4,1.5,2.7,2.8h0c10.8,47.1-28,148.5-84.4,204.5Z"/>
</svg>
