<svg xmlns="http://www.w3.org/2000/svg" viewBox="0 0 299.7 237.1">
<path fill="#000000" d="M202.9,90.7c-2.6-2.9-5.7-5.1-9.3-6.5s-7.7-2.1-12.1-2.1-11,1.3-15.4,3.7c-4.4,2.4-7.9,6.4-10.3,11.7-2.4,5.3-3.7,12.3-3.7,20.9s.7,12.1,2.2,16.7c1.4,4.7,3.4,8.4,6,11.3,2.6,2.9,5.6,5,9.3,6.4,3.6,1.4,7.6,2,12,2.1h0c5.9,0,11.2-1.3,15.6-3.8s7.9-6.4,10.3-11.8c2.4-5.3,3.7-12.3,3.7-20.9s-.7-12-2.2-16.5c-1.4-4.6-3.4-8.3-6-11.2h0ZM249.9,0H49.8C22.3,0,0,22.3,0,49.8v137.5c0,27.5,22.3,49.8,49.8,49.8h200.1c27.5,0,49.8-22.3,49.8-49.8V49.8c0-27.5-22.3-49.8-49.8-49.8ZM87.8,183.9h-36.4V53.1h36.4v130.8ZM243.6,147.3c-3.2,8.4-7.7,15.4-13.6,21.1-5.9,5.7-13,10-21.2,12.9s-17.3,4.4-27.3,4.4-19.1-1.4-27.3-4.4c-8.1-2.9-15.2-7.2-21.1-12.9-5.9-5.7-10.5-12.7-13.6-21.1-3.2-8.3-4.8-18-4.8-28.9s1.6-20.5,4.8-28.8c3.2-8.3,7.7-15.3,13.6-21,5.9-5.7,13-10,21.1-12.9,8.1-2.9,17.2-4.4,27.3-4.4s19.2,1.5,27.3,4.4c8.2,2.9,15.2,7.2,21.2,12.9,5.9,5.7,10.5,12.7,13.6,21,3.2,8.3,4.8,17.9,4.8,28.8s-1.6,20.5-4.8,28.9h0Z"/>
</svg>
