<svg xmlns="http://www.w3.org/2000/svg" viewBox="0 0 64 50.63"><g><g><path d="M48.17,20.27c-.45-.11-.89-.17-1.34-.17h-2.8v5.23h2.8c.45,0,.89-.06,1.34-.17.45-.11.83-.35,1.14-.73.31-.37.47-.96.47-1.75s-.16-1.34-.47-1.7c-.31-.36-.69-.6-1.14-.71Z" fill="#000000" fill-rule="evenodd"/><path d="M53.37,0H10.63C4.76,0,0,4.76,0,10.63v29.36c0,5.87,4.76,10.63,10.63,10.63h42.74c5.87,0,10.63-4.76,10.63-10.63V10.63c0-5.87-4.76-10.63-10.63-10.63ZM27.1,20.22h-6.29v16.87h-6.17v-16.87h-6.11v-5.29h18.57v5.29ZM34.46,37.09h-5.81v-16.54h5.81v16.54ZM34.46,18.82h-5.81v-3.89h5.81v3.89ZM55.1,26.41c-.63,1.15-1.55,2.04-2.75,2.68-1.21.64-2.68.96-4.42.96h-3.89v7.05h-6.17V14.93h10.06c1.64,0,3.07.29,4.29.88,1.22.59,2.16,1.44,2.83,2.55.67,1.11,1,2.47,1,4.07,0,1.5-.31,2.82-.94,3.97Z" fill="#000000" fill-rule="evenodd"/></g></g></svg>
