<svg xmlns="http://www.w3.org/2000/svg" xmlns:xlink="http://www.w3.org/1999/xlink" viewBox="0 0 98 26" overflow="visible">
  <g>
    <path d="M 98 5.461 L 98 20.539 C 98 23.549 95.536 26 92.509 26 L 70.44 26 C 67.413 26 64.949 23.549 64.949 20.539 L 64.949 5.461 C 64.949 2.451 67.413 0 70.44 0 L 92.509 0 C 95.536 0 98 2.451 98 5.461 Z M 74.618 5.821 L 70.601 5.821 L 70.601 20.179 L 74.618 20.179 Z M 92.335 12.987 C 92.335 11.801 92.161 10.749 91.813 9.83 C 91.465 8.924 90.956 8.152 90.313 7.526 C 89.644 6.9 88.88 6.433 87.97 6.114 C 87.072 5.794 86.068 5.634 84.957 5.634 C 83.845 5.634 82.841 5.794 81.943 6.114 C 81.046 6.433 80.256 6.9 79.613 7.526 C 78.97 8.152 78.462 8.924 78.113 9.83 C 77.765 10.736 77.591 11.788 77.591 12.987 C 77.591 14.185 77.765 15.238 78.113 16.157 C 78.462 17.076 78.97 17.848 79.613 18.474 C 80.269 19.1 81.046 19.567 81.943 19.886 C 82.841 20.206 83.858 20.366 84.957 20.366 C 86.055 20.366 87.059 20.206 87.97 19.886 C 88.88 19.567 89.67 19.1 90.313 18.474 C 90.956 17.848 91.465 17.076 91.813 16.157 C 92.161 15.238 92.335 14.172 92.335 12.987 Z" fill="rgb(0, 0, 0)"></path>
    <path d="M 87.322 9.911 C 87.041 9.591 86.693 9.351 86.291 9.205 C 85.889 9.045 85.447 8.978 84.952 8.978 C 84.309 8.978 83.747 9.112 83.251 9.378 C 82.756 9.644 82.381 10.071 82.113 10.657 C 81.845 11.243 81.711 12.002 81.711 12.948 C 81.711 13.654 81.791 14.266 81.952 14.773 C 82.113 15.292 82.327 15.692 82.622 16.011 C 82.903 16.318 83.238 16.557 83.64 16.704 C 84.028 16.85 84.47 16.93 84.965 16.93 C 85.621 16.93 86.197 16.797 86.693 16.517 C 87.188 16.238 87.563 15.811 87.831 15.225 C 88.099 14.639 88.233 13.88 88.233 12.934 C 88.233 12.228 88.153 11.616 87.992 11.123 C 87.818 10.63 87.603 10.231 87.322 9.911 Z" fill="rgb(0, 0, 0)"></path>
    <path d="M 5.745 20.113 L 5.745 4.316 L 0 4.316 L 0 0.733 L 15.762 0.733 L 15.762 4.316 L 9.883 4.316 L 9.883 20.113 Z M 19.846 20.352 C 18.989 20.352 18.213 20.206 17.516 19.9 C 16.82 19.607 16.204 19.14 15.695 18.514 C 15.186 17.902 14.798 17.129 14.53 16.21 C 14.262 15.291 14.128 14.225 14.128 12.987 C 14.128 11.335 14.369 9.976 14.838 8.884 C 15.307 7.792 15.976 6.98 16.847 6.42 C 17.704 5.861 18.722 5.594 19.86 5.594 C 20.61 5.594 21.279 5.714 21.882 5.941 C 22.485 6.18 22.993 6.5 23.435 6.9 C 23.877 7.299 24.199 7.792 24.413 8.338 L 24.627 8.338 L 24.788 5.874 L 28.551 5.874 L 28.551 20.126 L 24.627 20.126 L 24.627 17.622 L 24.413 17.622 C 24.092 18.461 23.529 19.114 22.726 19.607 C 21.922 20.099 20.971 20.352 19.86 20.352 Z M 21.346 17.196 C 22.069 17.196 22.672 17.023 23.154 16.69 C 23.623 16.357 23.984 15.917 24.212 15.371 C 24.453 14.838 24.56 14.265 24.56 13.653 L 24.56 12.294 C 24.56 11.681 24.44 11.095 24.212 10.562 C 23.984 10.03 23.623 9.603 23.154 9.257 C 22.672 8.924 22.083 8.751 21.346 8.751 C 20.703 8.751 20.141 8.898 19.659 9.204 C 19.177 9.497 18.802 9.963 18.534 10.589 C 18.266 11.202 18.132 12.001 18.132 12.973 C 18.132 13.946 18.266 14.692 18.534 15.331 C 18.802 15.957 19.177 16.423 19.659 16.73 C 20.141 17.023 20.703 17.182 21.346 17.182 Z M 37.738 24.801 C 36.479 24.801 35.381 24.615 34.483 24.255 C 33.586 23.895 32.863 23.389 32.341 22.737 C 31.819 22.084 31.524 21.338 31.457 20.459 L 35.22 20.459 C 35.287 20.752 35.434 21.032 35.662 21.272 C 35.876 21.511 36.184 21.698 36.546 21.831 C 36.907 21.964 37.336 22.031 37.818 22.031 C 38.581 22.031 39.211 21.924 39.679 21.698 C 40.148 21.471 40.496 21.152 40.724 20.725 C 40.938 20.299 41.059 19.766 41.059 19.1 L 41.059 16.65 L 40.845 16.65 C 40.55 17.409 40.001 18.035 39.238 18.514 C 38.474 18.994 37.564 19.234 36.532 19.234 C 35.675 19.234 34.899 19.087 34.216 18.794 C 33.533 18.501 32.943 18.075 32.448 17.489 C 31.952 16.903 31.564 16.197 31.296 15.344 C 31.028 14.492 30.895 13.519 30.895 12.401 C 30.895 10.895 31.122 9.63 31.604 8.631 C 32.073 7.619 32.729 6.86 33.586 6.34 C 34.443 5.821 35.421 5.568 36.559 5.568 C 37.59 5.568 38.501 5.807 39.264 6.274 C 40.028 6.74 40.563 7.366 40.871 8.112 L 41.086 8.112 L 41.193 5.821 L 44.996 5.821 L 44.996 18.368 C 44.996 19.553 44.822 20.552 44.474 21.378 C 44.125 22.191 43.63 22.857 42.987 23.363 C 42.344 23.869 41.581 24.228 40.697 24.455 C 39.813 24.668 38.822 24.788 37.751 24.788 Z M 37.939 16.25 C 38.621 16.25 39.184 16.103 39.626 15.824 C 40.068 15.544 40.403 15.158 40.644 14.705 C 40.885 14.239 41.005 13.759 41.045 13.266 L 41.019 11.561 C 41.005 11.069 40.871 10.589 40.644 10.136 C 40.416 9.683 40.081 9.31 39.626 9.031 C 39.184 8.751 38.621 8.605 37.965 8.605 C 37.349 8.605 36.8 8.738 36.318 9.017 C 35.849 9.297 35.488 9.71 35.233 10.283 C 34.979 10.842 34.858 11.575 34.858 12.427 C 34.858 13.28 34.992 14.012 35.247 14.572 C 35.501 15.131 35.863 15.557 36.332 15.837 C 36.8 16.117 37.349 16.25 37.939 16.25 Z M 54.316 20.352 C 53.232 20.352 52.254 20.193 51.37 19.86 C 50.5 19.54 49.737 19.047 49.094 18.408 C 48.451 17.768 47.955 16.996 47.621 16.09 C 47.286 15.171 47.112 14.145 47.112 13 C 47.112 11.535 47.393 10.243 47.969 9.137 C 48.545 8.032 49.362 7.166 50.433 6.54 C 51.504 5.927 52.79 5.608 54.316 5.608 C 55.388 5.608 56.352 5.781 57.236 6.114 C 58.106 6.447 58.87 6.94 59.499 7.579 C 60.128 8.218 60.624 8.991 60.972 9.883 C 61.32 10.789 61.494 11.828 61.494 12.987 C 61.494 14.439 61.213 15.717 60.637 16.823 C 60.075 17.928 59.245 18.794 58.187 19.42 C 57.115 20.033 55.83 20.352 54.316 20.352 Z M 54.29 17.196 C 54.933 17.196 55.495 17.036 55.977 16.73 C 56.459 16.423 56.834 15.957 57.102 15.331 C 57.356 14.718 57.49 13.932 57.49 12.987 C 57.49 12.281 57.423 11.668 57.276 11.149 C 57.129 10.629 56.914 10.19 56.633 9.83 C 56.352 9.47 56.017 9.217 55.615 9.044 C 55.227 8.884 54.785 8.791 54.303 8.791 C 53.66 8.791 53.098 8.937 52.616 9.244 C 52.134 9.55 51.745 10.003 51.477 10.629 C 51.21 11.242 51.076 12.041 51.076 13 C 51.076 13.706 51.143 14.319 51.303 14.838 C 51.451 15.358 51.678 15.797 51.96 16.143 C 52.241 16.49 52.576 16.756 52.977 16.929 C 53.379 17.089 53.808 17.182 54.29 17.196 Z" fill="rgb(0, 0, 0)"></path>
  </g>
</svg>