<svg xmlns="http://www.w3.org/2000/svg" viewBox="138.2 154.6 610.8 290.9">
  <path fill="#000000" fill-rule="evenodd" d="M290,256.2c-3-1.1-6.5-1.7-10.5-1.7h-32.7l.1,36.4h32.7c7.3,0,12.4-1.8,15.5-5.4,3-3.6,4.5-8,4.5-13.4,0-4.5-.9-8-2.6-10.5s-4.1-4.4-7-5.4Z"/>
  <path fill="#000000" fill-rule="evenodd" d="M687.9,154.6H199.3c-33.7,0-61.1,27.4-61.1,61.1v168.7c0,33.7,27.4,61.1,61.1,61.1h488.6c33.7,0,61.1-27.4,61.1-61.1v-168.7c0-33.7-27.4-61.1-61.1-61.1ZM335.9,315.7c4,5,6,12,6,21v23.6c0,3.1.1,6.3.3,9.7.2,3.3,1.1,6.7,2.6,9.9h-45.5c-.9-1.8-1.5-4.4-2-7.9s-.6-7.3-.6-11.5v-16.1c0-3.9-.6-7.2-1.8-9.8-1.2-2.7-3.3-4.8-6.3-6.3s-7.2-2.2-12.7-2.2h-29v53.7l-45.3.3v-162.5h84.8c10.1,0,18.9,1.1,26.4,3.1,7.5,2.1,13.7,5.2,18.6,9.3,4.9,4.1,8.6,9.2,11.1,15.2,2.4,5.9,3.7,12.8,3.7,20.7,0,9.5-2.6,17.8-7.7,24.9-5.1,7.1-11.9,11.5-20.2,13.5v1.5c7.7,1.6,13.6,5,17.6,9.9ZM506.6,316.7c0,14-3,25.8-9,35.6-6,9.7-14.5,17.1-25.3,22.3-10.9,5.1-23.6,7.7-38.1,7.8-15.3,0-28.4-2.8-39-8.3-10.7-5.5-18.8-13.2-24.4-23-5.6-9.8-8.4-21.3-8.4-34.4v-99.2h45v99.5c0,5.5,1.1,10.2,3.3,14,2.1,3.8,5.2,6.7,9.3,8.6,4,1.9,8.9,2.9,14.7,2.9s10.7-1,14.7-2.9c4-2,7.1-4.8,9.1-8.6s3.1-8.5,3.1-14v-99.5h45v99.2ZM686,380.2h-50.1l-52.8-96.1h-1.8l1.1,43.5v52.7l-46.3-.2v-162.5h53.3l52.8,99.7h1.8l-1.5-49.5v-50.1h43.5v162.5Z"/>
</svg>
