<svg xmlns="http://www.w3.org/2000/svg" viewBox="0 0 412.56 412.56">
  <path fill="#FFFFFF" fill-rule="evenodd" d="M69.25,224.57c-3.2,7.94-5.85,15.88-7.91,23.74-9.94,37.95-4.85,69.41,14.33,88.59,19.18,19.18,50.64,24.27,88.59,14.33,7.87-2.06,15.8-4.71,23.75-7.91-23.43-13.33-46.26-30.83-67.09-51.66s-38.33-43.65-51.66-67.08Z"/>
  <path fill="#FFFFFF" fill-rule="evenodd" d="M69.25,188c13.33-23.43,30.83-46.27,51.67-67.1,20.83-20.83,43.66-38.33,67.09-51.66-7.95-3.21-15.89-5.86-23.75-7.92-37.94-9.94-69.41-4.85-88.59,14.33-19.18,19.18-24.27,50.64-14.33,88.59,2.06,7.87,4.71,15.81,7.92,23.76Z"/>
  <path fill="#FFFFFF" fill-rule="evenodd" d="M334.98,206.29c-13.1-25.75-31.74-51.12-54.66-74.05-22.92-22.92-48.29-41.56-74.04-54.66-25.75,13.1-51.11,31.74-74.04,54.66-22.92,22.92-41.56,48.3-54.66,74.05,13.1,25.75,31.74,51.11,54.65,74.03,22.92,22.92,48.29,41.56,74.04,54.66,25.75-13.1,51.12-31.74,74.04-54.66s41.56-48.28,54.65-74.03ZM253.68,182.68h-30.84v63.7c0,9.1-7.39,16.49-16.49,16.49s-16.49-7.39-16.49-16.49v-63.7h-30.84c-9.1,0-16.49-7.38-16.49-16.49s7.39-16.49,16.49-16.49h94.67c9.1,0,16.49,7.39,16.49,16.49s-7.39,16.49-16.49,16.49Z"/>
  <path fill="#FFFFFF" fill-rule="evenodd" d="M248.32,61.33c-7.87,2.06-15.81,4.71-23.76,7.92,23.43,13.33,46.26,30.83,67.09,51.66,20.83,20.83,38.34,43.67,51.67,67.1,3.21-7.95,5.86-15.89,7.92-23.76,9.94-37.95,4.85-69.41-14.33-88.59-19.18-19.18-50.64-24.27-88.59-14.33Z"/>
  <path fill="#FFFFFF" fill-rule="evenodd" d="M343.32,224.57c-13.33,23.43-30.83,46.25-51.66,67.08s-43.66,38.34-67.09,51.66c7.95,3.2,15.88,5.85,23.75,7.92,12.68,3.32,24.64,4.97,35.66,4.97,21.95,0,40.16-6.52,52.93-19.29,19.18-19.18,24.27-50.64,14.33-88.59-2.06-7.86-4.71-15.8-7.91-23.74Z"/>
  <path fill="#FFFFFF" fill-rule="evenodd" d="M334.18,0H78.39C35.12,0,0,35.12,0,78.39v255.78c0,43.27,35.12,78.39,78.39,78.39h255.79c43.26,0,78.39-35.12,78.39-78.39V78.39c0-43.27-35.12-78.39-78.39-78.39ZM366.74,244.25c11.44,43.68,4.87,80.61-18.5,103.99-15.87,15.87-37.98,23.99-64.22,23.99-12.41,0-25.74-1.82-39.77-5.49-12.58-3.3-25.31-7.98-37.97-13.93-12.66,5.95-25.39,10.63-37.97,13.93-43.68,11.44-80.61,4.87-103.99-18.5-23.37-23.37-29.94-60.3-18.5-103.99,3.3-12.58,7.98-25.31,13.93-37.96-5.95-12.66-10.64-25.39-13.94-37.98-11.44-43.68-4.87-80.61,18.5-103.99,23.37-23.37,60.3-29.94,103.99-18.5,12.58,3.3,25.32,7.98,37.98,13.93,12.66-5.95,25.39-10.64,37.98-13.93,43.68-11.44,80.61-4.87,103.99,18.5,23.37,23.37,29.94,60.3,18.5,103.99-3.3,12.59-7.99,25.32-13.94,37.98,5.95,12.66,10.63,25.38,13.93,37.97Z"/>
</svg>
